<?xml version="1.0" encoding="UTF-8" standalone="no"?>
<svg
   id="svg"
   width="372.77762"
   height="225.70695"
   viewBox="0 0 372.77762 225.70695"
   version="1.1"
   sodipodi:docname="logo.svg"
   inkscape:version="1.1 (c68e22c387, 2021-05-23)"
   xmlns:inkscape="http://www.inkscape.org/namespaces/inkscape"
   xmlns:sodipodi="http://sodipodi.sourceforge.net/DTD/sodipodi-0.dtd"
   xmlns="http://www.w3.org/2000/svg"
   xmlns:svg="http://www.w3.org/2000/svg">
  <defs
     id="defs21" />
  <sodipodi:namedview
     id="namedview19"
     pagecolor="#505050"
     bordercolor="#ffffff"
     borderopacity="1"
     inkscape:pageshadow="0"
     inkscape:pageopacity="0"
     inkscape:pagecheckerboard="1"
     showgrid="false"
     inkscape:zoom="2.7453027"
     inkscape:cx="191.05361"
     inkscape:cy="104.36007"
     inkscape:window-width="2160"
     inkscape:window-height="1271"
     inkscape:window-x="2869"
     inkscape:window-y="-11"
     inkscape:window-maximized="1"
     inkscape:current-layer="svgg"
     fit-margin-top="0"
     fit-margin-left="0"
     fit-margin-right="0"
     fit-margin-bottom="0" />
  <g
     id="svgg"
     transform="translate(0.23279755,-0.60415233)">
    <path
       id="path0"
       d="m 172.77092,1.4508139 c -17.275,2.097 -34.261,8.08 -48.831,17.2000001 -7.908,4.95 -9.382,7.058 -6.544,9.356 1.678,1.359 2.656,1.064 7.991,-2.415 35.576,-23.1970001 80.768,-24.1880001 117.097,-2.567 6.303,3.751 8.891,3.62 8.891,-0.449 0,-5.287 -27.884,-17.3200001 -47.441,-20.4730001 -5.679,-0.915 -25.565,-1.331 -31.163,-0.652 m 2.093,11.8850001 c -55.596,7.848 -91.315003,47.525 -93.746003,104.133996 -0.878,20.434 -5.127,32.208 -16.372,45.365 -5.22,6.108 -7.656,7.899 -51.165,37.607 -6.8450005,4.674 -12.65300049,8.886 -12.90700049,9.36 -1.17,2.186 0.296,4.644 2.76899999,4.644 0.861,0 7.3810005,-3.086 17.5580005,-8.31 34.715,-17.822 52.556,-26.97 66.046,-33.866 l 14.045003,-7.179 0.792,1.538 c 12.755,24.751 43.256,44.547 73.757,47.872 72.852,7.94 128.281,-65.797 100.467,-133.650996 l -1.856,-4.526 3.329,-1.806 c 1.831,-0.993 9.19,-4.793 16.353,-8.444 7.162,-3.65 15.325,-7.837 18.139,-9.303 2.814,-1.466 10.977,-5.669 18.14,-9.34 45.509,-23.324 42.413,-21.493 41.369,-24.464 -1.092,-3.103 -1.356,-3.057 -19.124,3.364 -55.891,20.197 -52.84,19.297 -65.415,19.306 -14.921,0.012 -25.331,-3.433 -40.048,-13.252 -15.01,-10.014 -27.529,-15.189 -43.992,-18.184 -4.238,-0.771 -24.411,-1.391 -28.139,-0.865 m 23.483,6.961 c 15.654,2.031 32.57,8.613 44.656,17.376 20.935,15.177 44.719,18.72 69.094,10.292 3.013,-1.041 5.531,-1.839 5.597,-1.774 0.066,0.066 -11.114,5.907 -24.844,12.98 -28.131,14.493 -27.354,13.957 -25.704,17.718 11.056,25.210996 12.548,46.412996 4.894,69.521996 -24.602,74.283 -127.96,83.936 -165.257,15.435 -3.244,-5.958 -2.222,-6.076 -18.071003,2.084 -24.759,12.746 -38.003,19.386 -37.043,18.569 0.544,-0.464 2.849,-2.142 5.121,-3.728 19.76,-13.8 29.689,-33.061 30.86,-59.863 0.624,-14.275 1.716,-21.397996 4.75,-30.972996 14.249003,-44.973 59.243003,-73.697 105.947003,-67.638 m -95.929,15.63 c -14.987003,15.498 -31.209003,45.332 -27.330003,50.264 2.478,3.15 4.688,1.336 7.228,-5.931 4.773,-13.656 13.622,-27.857 24.201003,-38.838 4.846,-5.03 5.376,-6.058 4.047,-7.846 -1.944,-2.615 -3.885,-2.055 -8.146,2.351 m 75.004,0.235 c -27.529,2.899 -53.035,20.814 -64.957,45.625 -2.456,5.112 -2.595,7.295 -0.54,8.443 2.441,1.364 3.527,0.42 6.657,-5.791 16.971,-33.674 54.165,-49.566 90.161,-38.524 4.692,1.44 6.103,1.155 6.952,-1.401 1.754,-5.278 -20.776,-10.195 -38.273,-8.352 m 169.535,7.294 c -6.054,3.2 -6.971,4.219 -5.903,6.562 1.156,2.537 2.561,2.45 8.61,-0.534 6.162,-3.04 6.983,-3.723 6.983,-5.814 0,-3.902 -2.602,-3.959 -9.69,-0.214 m -126.737,1.345 c -3.309,1.706 -2.101,4.549 3.193,7.509 1.865,1.043 5.414,3.415 7.886,5.269 5.832,4.376 8.914,4.479 8.914,0.297 0,-3.791 -16.751,-14.747 -19.993,-13.075 m -43.496,2.858 c -35.754,5.313 -61.151,34.324 -61.161,69.863996 -0.001,5.939 0.09,6.682 0.962,7.791 1.793,2.278 -0.49,3.305 46.943,-21.105 8.314,-4.277996 23.384,-12.016996 33.489,-17.196996 39.279,-20.135 35.814,-18.125 35.814,-20.774 0,-3.381 -12.905,-11.615 -24.046,-15.343 -10.057,-3.365 -22.597,-4.633 -32.001,-3.236 m 148.799,6.833 c -3.715,1.964 -4.38,2.628 -4.38,4.373 0,3.968 5.155,3.891 9.884,-0.147 3.56,-3.04 -1.05,-6.58 -5.504,-4.226 m -127.264,0.47 c 7.893,1.519 15.308,4.477 22.315,8.902 l 2.948,1.862 -1.306,0.783 c -0.718,0.431 -7.585,3.992 -15.259,7.914 -7.675,3.922 -20.965,10.734 -29.535,15.138 -45.818,23.543996 -54.826,28.140996 -55.143,28.140996 -0.19,0 -0.217,-1.936 -0.06,-4.302 2.559,-38.433996 38.09,-65.739996 76.04,-58.437996 m 105.578,10.592 c -13.157,6.797 -14.363,7.921 -11.531,10.753 1.578,1.578 3.061,1.105 13.911,-4.436 12.863,-6.57 14.494,-8.186 11.134,-11.029 -1.556,-1.317 -2.437,-1.009 -13.514,4.712 m -41.531,-3.069 c -5.251,2.768 -6.343,6.133 -2.434,7.508 1.455,0.512 9.344,-2.961 10.153,-4.47 2.455,-4.578 -1.696,-6.211 -7.719,-3.038 m -14.646,7.584 c -3.076,1.758 -3.761,3.878 -1.866,5.773 2.359,2.358 8.372,-0.509 8.372,-3.992 0,-2.892 -3.084,-3.737 -6.506,-1.781 m -22.941,11.797 c -66.095,33.860996 -63.079,32.187996 -62.465,34.633996 1.045,4.164 1.961,3.879 24.116,-7.491 10.811,-5.549 27.485,-14.102996 37.054,-19.008996 18.318,-9.394 19.039,-9.886 18.373,-12.539 -0.25,-0.995 -2.212,-2.55 -3.218,-2.55 -0.156,0 -6.393,3.13 -13.86,6.955 m 21.54,1.23 c -5.756,2.958 -19.465,9.995 -30.465,15.638 -11,5.641996 -27.326,14.020996 -36.279,18.618996 -15.435,7.926 -23.047,11.829 -46.279,23.728 -24.639,12.618 -23.942,12.116 -21.362,15.396 1.408,1.789 3.025,1.567 8.017,-1.101 5.285,-2.823 4.463,-2.913 6.83,0.747 28.721,44.41 94.936,42.345 120.859,-3.77 10.63,-18.911 11.867,-43.765 3.141,-63.113996 -0.292,-0.647 0.416,-1.177 3.922,-2.938 6.41,-3.22 7.579,-4.776 5.536,-7.373 -1.527,-1.941 -2.737,-1.579 -13.92,4.168 m 38.158,3.531 c -1.161,1.245 -1.161,1.59 -0.006,5.932 0.506,1.904 1.247,5.343 1.646,7.642996 1.03,5.939 2.224,7.425 5.092,6.335 2.554,-0.971 2.541,-3.805 -0.065,-14.568996 -1.538,-6.35 -3.937,-8.272 -6.667,-5.341 m -211.888003,5.504 c -1.1,1.216 -2.066,6.315 -1.509,7.968996 0.895,2.657 4.712,2.663 5.921,0.009 2.558,-5.613996 -0.897,-11.861996 -4.412,-7.977996 m 172.492003,0.804 c 4.298,8.507996 6.122,26.125996 3.84,37.092996 -10.089,48.484 -67.438,68.098 -104.951,35.895 -5.61,-4.816 -13.762,-15.114 -12.737,-16.091 0.45,-0.43 7.9,-4.281 60.202,-31.118 17.012,-8.729 35.745,-18.364 41.628,-21.411996 12.397,-6.422 11.2,-5.987 12.018,-4.367 m -136.789,3.388 c -2.251,0.904 -3.375,6.706996 -3.691,19.052996 -0.275,10.769 0.07,12.094 3.147,12.094 2.844,0 3.222,-1.048 3.226,-8.954 0.002,-4.195 0.298,-8.898 0.726,-11.512 1.402,-8.565996 1.4,-9.022996 -0.043,-10.157996 -1.393,-1.095 -1.788,-1.157 -3.365,-0.523 m 129.866,5.310996 c -1.322,1.323 -1.326,1.376 -0.432,5.37 0.993,4.435 1.345,12.637 0.729,16.969 -0.636,4.469 0.039,5.953 2.818,6.193 3.306,0.286 4.394,-3.751 3.984,-14.79 -0.468,-12.622 -3.108,-17.731996 -7.099,-13.742 m 50.568,11.098 c -0.85,0.905 -1.012,1.628 -1.016,4.535 -0.035,25.018 -9.503,49.709 -26.302,68.591 -4.358,4.898 -4.435,8.588 -0.178,8.588 5.208,0 21.769,-25.755 27.366,-42.558 4.737,-14.224 7.45,-36.552 4.766,-39.236 -1.315,-1.315 -3.359,-1.28 -4.636,0.08 m -263.863003,5.205 c -16.5200005,5.298 -14.8930005,29.19 2.2,32.289 13.139,2.383 23.461,-11.656 17.492,-23.791 -3.501,-7.118 -12.237,-10.888 -19.692,-8.498 m 114.712003,7.642 c -22.988,11.754 -21.83,11.049 -22.002,13.392 -0.183,2.493 1.394,3.788 3.785,3.108 2.162,-0.616 36.564,-18.305 37.586,-19.327 1.801,-1.802 0.215,-5.537 -2.339,-5.506 -0.413,0.005 -8.077,3.755 -17.03,8.333 m -104.616003,-0.206 c 5.103,2.99 6.31,10.159 2.489,14.784 -5.984,7.245 -17.641,2.964 -17.641,-6.479 0,-7.575 8.474,-12.219 15.152,-8.305 m 68.715003,18.611 c -7.469003,3.848 -8.795003,5.612 -6.104003,8.119 1.502,1.399 2.283,1.224 8.464003,-1.899 8.343,-4.216 9.957,-7.355 4.617,-8.981 -0.738,-0.224 -2.653,0.534 -6.977,2.761 m 123.377,7.055 c -4.01,4.682 -3.949,8.058 0.147,8.058 3.853,0 9.123,-8.613 6.643,-10.858 -1.887,-1.707 -3.497,-1.044 -6.79,2.8 m 115.535,2.141 c -14.378,4.901 -18.593,23.171 -7.834,33.954 11.855,11.881 32.064,5.355 34.916,-11.276 2.597,-15.145 -12.384,-27.69 -27.082,-22.678 m -198.407,1.157 c -2.051,1.37 -1.943,3.458 0.304,5.896 6.042,6.555 11.041,8.515 12.532,4.915 0.829,-2 0.292,-2.908 -3.385,-5.729 -1.846,-1.416 -3.972,-3.22 -4.723,-4.007 -1.35,-1.413 -3.492,-1.9 -4.728,-1.075 m 210.166,5.223 c 6.488,2.427 10.347,9.981 8.487,16.611 -4.354,15.515 -27.336,12.728 -27.425,-3.325 -0.055,-10.004 9.602,-16.779 18.938,-13.286 m -146.631,6.305 c -8.909,3.959 -17.107,5.277 -27.171,4.369 l -6.473,-0.584 -1.119,1.301 c -2.012,2.339 -0.85,4.549 2.817,5.359 15.202,3.354 41.813,-3.474 38.854,-9.97 -1.093,-2.398 -2.382,-2.486 -6.908,-0.475 m -127.441003,14.455 c -8.303,4.348 -9.594,5.928 -6.977,8.545 1.5,1.5 2.844,1.137 10.419,-2.811 7.562,-3.941 8.565,-4.892 7.683,-7.277 -1.077,-2.912 -3.175,-2.621 -11.125,1.543 m 22.620003,1.137 c -2.21,1.738 -1.739,3.453 2.182,7.933 6.278,7.175 8.43,8.34 10.513,5.691 1.487,-1.891 1.195,-2.806 -1.96,-6.145 -1.608,-1.702 -3.738,-4.036 -4.734,-5.187 -2.933,-3.392 -4.057,-3.821 -6.001,-2.292 m -56.794003,16.439 c -19.065,9.729 -19.78,10.173 -19.78,12.295 0,1.45 1.765,3.325 3.13,3.325 0.754,0 34.957,-17.303 36.986,-18.711 2.377,-1.649 1.195,-5.955 -1.628,-5.931 -0.575,0.005 -8.994,4.065 -18.708,9.022 m 201.848003,0.289 c -34.895,27.272 -85.568,27.948 -121.706,1.624 -3.432,-2.5 -5.069,-2.648 -6.594,-0.596 -1.913,2.574 0.739,5.302 11.229,11.551 38.138,22.718 86.998,19.473 122.262,-8.119 3.771,-2.95 4.469,-4.393 3.048,-6.304 -1.691,-2.275 -3.482,-1.874 -8.239,1.844"
       stroke="#000000"
       stroke-width="1"
       fill="#f0f0f0"
       fill-rule="evenodd"
       sodipodi:nodetypes="cccccscccccccscccccccccscccccsccccccccsccccccccccccccccccccccsccccsccccccscccsccccccccscccscccccccccsccccccscccccccccccsccccccccccccccccccccscccccccccccccscsccccccsccscccscccccccscccccccccccccccccsccccccscccccsccccssccccsscccc" />
  </g>
</svg>
