<svg id="svg" xmlns="http://www.w3.org/2000/svg" xmlns:xlink="http://www.w3.org/1999/xlink" width="400" height="376.27906976744185" viewBox="0, 0, 400,376.27906976744185"><g id="svgg"><path id="path0" d="M186.977 20.028 C 169.702 22.125,152.716 28.108,138.146 37.228 C 130.238 42.178,128.764 44.286,131.602 46.584 C 133.280 47.943,134.258 47.648,139.593 44.169 C 175.169 20.972,220.361 19.981,256.690 41.602 C 262.993 45.353,265.581 45.222,265.581 41.153 C 265.581 35.866,237.697 23.833,218.140 20.680 C 212.461 19.765,192.575 19.349,186.977 20.028 M189.070 31.913 C 133.474 39.761,97.755 79.438,95.324 136.047 C 94.446 156.481,90.197 168.255,78.952 181.412 C 73.732 187.520,71.296 189.311,27.787 219.019 C 20.942 223.693,15.134 227.905,14.880 228.379 C 13.710 230.565,15.176 233.023,17.649 233.023 C 18.510 233.023,25.030 229.937,35.207 224.713 C 69.922 206.891,87.763 197.743,101.253 190.847 L 115.298 183.668 116.090 185.206 C 128.845 209.957,159.346 229.753,189.847 233.078 C 262.699 241.018,318.128 167.281,290.314 99.427 L 288.458 94.901 291.787 93.095 C 293.618 92.102,300.977 88.302,308.140 84.651 C 315.302 81.001,323.465 76.814,326.279 75.348 C 329.093 73.882,337.256 69.679,344.419 66.008 C 389.928 42.684,386.832 44.515,385.788 41.544 C 384.696 38.441,384.432 38.487,366.664 44.908 C 310.773 65.105,313.824 64.205,301.249 64.214 C 286.328 64.226,275.918 60.781,261.201 50.962 C 246.191 40.948,233.672 35.773,217.209 32.778 C 212.971 32.007,192.798 31.387,189.070 31.913 M212.553 38.874 C 228.207 40.905,245.123 47.487,257.209 56.250 C 278.144 71.427,301.928 74.970,326.303 66.542 C 329.316 65.501,331.834 64.703,331.900 64.768 C 331.966 64.834,320.786 70.675,307.056 77.748 C 278.925 92.241,279.702 91.705,281.352 95.466 C 292.408 120.677,293.900 141.879,286.246 164.988 C 261.644 239.271,158.286 248.924,120.989 180.423 C 117.745 174.465,118.767 174.347,102.918 182.507 C 78.159 195.253,64.915 201.893,65.875 201.076 C 66.419 200.612,68.724 198.934,70.996 197.348 C 90.756 183.548,100.685 164.287,101.856 137.485 C 102.480 123.210,103.572 116.087,106.606 106.512 C 120.855 61.539,165.849 32.815,212.553 38.874 M116.624 54.504 C 101.637 70.002,85.415 99.836,89.294 104.768 C 91.772 107.918,93.982 106.104,96.522 98.837 C 101.295 85.181,110.144 70.980,120.723 59.999 C 125.569 54.969,126.099 53.941,124.770 52.153 C 122.826 49.538,120.885 50.098,116.624 54.504 M191.628 54.739 C 164.099 57.638,138.593 75.553,126.671 100.364 C 124.215 105.476,124.076 107.659,126.131 108.807 C 128.572 110.171,129.658 109.227,132.788 103.016 C 149.759 69.342,186.953 53.450,222.949 64.492 C 227.641 65.932,229.052 65.647,229.901 63.091 C 231.655 57.813,209.125 52.896,191.628 54.739 M361.163 62.033 C 355.109 65.233,354.192 66.252,355.260 68.595 C 356.416 71.132,357.821 71.045,363.870 68.061 C 370.032 65.021,370.853 64.338,370.853 62.247 C 370.853 58.345,368.251 58.288,361.163 62.033 M234.426 63.378 C 231.117 65.084,232.325 67.927,237.619 70.887 C 239.484 71.930,243.033 74.302,245.505 76.156 C 251.337 80.532,254.419 80.635,254.419 76.453 C 254.419 72.662,237.668 61.706,234.426 63.378 M190.930 66.236 C 155.176 71.549,129.779 100.560,129.769 136.100 C 129.768 142.039,129.859 142.782,130.731 143.891 C 132.524 146.169,130.241 147.196,177.674 122.786 C 185.988 118.508,201.058 110.769,211.163 105.589 C 250.442 85.454,246.977 87.464,246.977 84.815 C 246.977 81.434,234.072 73.200,222.931 69.472 C 212.874 66.107,200.334 64.839,190.930 66.236 M339.729 73.069 C 336.014 75.033,335.349 75.697,335.349 77.442 C 335.349 81.410,340.504 81.333,345.233 77.295 C 348.793 74.255,344.183 70.715,339.729 73.069 M212.465 73.539 C 220.358 75.058,227.773 78.016,234.780 82.441 L 237.728 84.303 236.422 85.086 C 235.704 85.517,228.837 89.078,221.163 93.000 C 213.488 96.922,200.198 103.734,191.628 108.138 C 145.810 131.682,136.802 136.279,136.485 136.279 C 136.295 136.279,136.268 134.343,136.425 131.977 C 138.984 93.543,174.515 66.237,212.465 73.539 M318.043 84.131 C 304.886 90.928,303.680 92.052,306.512 94.884 C 308.090 96.462,309.573 95.989,320.423 90.448 C 333.286 83.878,334.917 82.262,331.557 79.419 C 330.001 78.102,329.120 78.410,318.043 84.131 M276.512 81.062 C 271.261 83.830,270.169 87.195,274.078 88.570 C 275.533 89.082,283.422 85.609,284.231 84.100 C 286.686 79.522,282.535 77.889,276.512 81.062 M261.866 88.646 C 258.790 90.404,258.105 92.524,260.000 94.419 C 262.359 96.777,268.372 93.910,268.372 90.427 C 268.372 87.535,265.288 86.690,261.866 88.646 M238.925 100.443 C 172.830 134.304,175.846 132.631,176.460 135.077 C 177.505 139.241,178.421 138.956,200.576 127.586 C 211.387 122.037,228.061 113.483,237.630 108.577 C 255.948 99.183,256.669 98.691,256.003 96.038 C 255.753 95.043,253.791 93.488,252.785 93.488 C 252.629 93.488,246.392 96.618,238.925 100.443 M260.465 101.673 C 254.709 104.631,241.000 111.668,230.000 117.311 C 219.000 122.953,202.674 131.332,193.721 135.930 C 178.286 143.856,170.674 147.759,147.442 159.658 C 122.803 172.276,123.500 171.774,126.080 175.054 C 127.488 176.843,129.105 176.621,134.097 173.953 C 139.382 171.130,138.560 171.040,140.927 174.700 C 169.648 219.110,235.863 217.045,261.786 170.930 C 272.416 152.019,273.653 127.165,264.927 107.816 C 264.635 107.169,265.343 106.639,268.849 104.878 C 275.259 101.658,276.428 100.102,274.385 97.505 C 272.858 95.564,271.648 95.926,260.465 101.673 M298.623 105.204 C 297.462 106.449,297.462 106.794,298.617 111.136 C 299.123 113.040,299.864 116.479,300.263 118.779 C 301.293 124.718,302.487 126.204,305.355 125.114 C 307.909 124.143,307.896 121.309,305.290 110.545 C 303.752 104.195,301.353 102.273,298.623 105.204 M86.735 110.708 C 85.635 111.924,84.669 117.023,85.226 118.677 C 86.121 121.334,89.938 121.340,91.147 118.686 C 93.705 113.072,90.250 106.824,86.735 110.708 M259.227 111.512 C 263.525 120.020,265.349 137.638,263.067 148.605 C 252.978 197.089,195.629 216.703,158.116 184.500 C 152.506 179.684,144.354 169.386,145.379 168.409 C 145.829 167.979,153.279 164.128,205.581 137.291 C 222.593 128.562,241.326 118.927,247.209 115.879 C 259.606 109.457,258.409 109.892,259.227 111.512 M122.438 114.900 C 120.187 115.804,119.063 121.607,118.747 133.953 C 118.472 144.722,118.817 146.047,121.894 146.047 C 124.738 146.047,125.116 144.999,125.120 137.093 C 125.122 132.898,125.418 128.195,125.846 125.581 C 127.248 117.015,127.246 116.558,125.803 115.423 C 124.410 114.328,124.015 114.266,122.438 114.900 M252.304 120.211 C 250.982 121.534,250.978 121.587,251.872 125.581 C 252.865 130.016,253.217 138.218,252.601 142.550 C 251.965 147.019,252.640 148.503,255.419 148.743 C 258.725 149.029,259.813 144.992,259.403 133.953 C 258.935 121.331,256.295 116.221,252.304 120.211 M302.872 131.309 C 302.022 132.214,301.860 132.937,301.856 135.844 C 301.821 160.862,292.353 185.553,275.554 204.435 C 271.196 209.333,271.119 213.023,275.376 213.023 C 280.584 213.023,297.145 187.268,302.742 170.465 C 307.479 156.241,310.192 133.913,307.508 131.229 C 306.193 129.914,304.149 129.949,302.872 131.309 M39.009 136.514 C 22.489 141.812,24.116 165.704,41.209 168.803 C 54.348 171.186,64.670 157.147,58.701 145.012 C 55.200 137.894,46.464 134.124,39.009 136.514 M153.721 144.156 C 130.733 155.910,131.891 155.205,131.719 157.548 C 131.536 160.041,133.113 161.336,135.504 160.656 C 137.666 160.040,172.068 142.351,173.090 141.329 C 174.891 139.527,173.305 135.792,170.751 135.823 C 170.338 135.828,162.674 139.578,153.721 144.156 M49.105 143.950 C 54.208 146.940,55.415 154.109,51.594 158.734 C 45.610 165.979,33.953 161.698,33.953 152.255 C 33.953 144.680,42.427 140.036,49.105 143.950 M117.820 162.561 C 110.351 166.409,109.025 168.173,111.716 170.680 C 113.218 172.079,113.999 171.904,120.180 168.781 C 128.523 164.565,130.137 161.426,124.797 159.800 C 124.059 159.576,122.144 160.334,117.820 162.561 M241.197 169.616 C 237.187 174.298,237.248 177.674,241.344 177.674 C 245.197 177.674,250.467 169.061,247.987 166.816 C 246.100 165.109,244.490 165.772,241.197 169.616 M356.732 171.757 C 342.354 176.658,338.139 194.928,348.898 205.711 C 360.753 217.592,380.962 211.066,383.814 194.435 C 386.411 179.290,371.430 166.745,356.732 171.757 M158.325 172.914 C 156.274 174.284,156.382 176.372,158.629 178.810 C 164.671 185.365,169.670 187.325,171.161 183.725 C 171.990 181.725,171.453 180.817,167.776 177.996 C 165.930 176.580,163.804 174.776,163.053 173.989 C 161.703 172.576,159.561 172.089,158.325 172.914 M368.491 178.137 C 374.979 180.564,378.838 188.118,376.978 194.748 C 372.624 210.263,349.642 207.476,349.553 191.423 C 349.498 181.419,359.155 174.644,368.491 178.137 M221.860 184.442 C 212.951 188.401,204.753 189.719,194.689 188.811 L 188.216 188.227 187.097 189.528 C 185.085 191.867,186.247 194.077,189.914 194.887 C 205.116 198.241,231.727 191.413,228.768 184.917 C 227.675 182.519,226.386 182.431,221.860 184.442 M94.419 198.897 C 86.116 203.245,84.825 204.825,87.442 207.442 C 88.942 208.942,90.286 208.579,97.861 204.631 C 105.423 200.690,106.426 199.739,105.544 197.354 C 104.467 194.442,102.369 194.733,94.419 198.897 M117.039 200.034 C 114.829 201.772,115.300 203.487,119.221 207.967 C 125.499 215.142,127.651 216.307,129.734 213.658 C 131.221 211.767,130.929 210.852,127.774 207.513 C 126.166 205.811,124.036 203.477,123.040 202.326 C 120.107 198.934,118.983 198.505,117.039 200.034 M60.245 216.473 C 41.180 226.202,40.465 226.646,40.465 228.768 C 40.465 230.218,42.230 232.093,43.595 232.093 C 44.349 232.093,78.552 214.790,80.581 213.382 C 82.958 211.733,81.776 207.427,78.953 207.451 C 78.378 207.456,69.959 211.516,60.245 216.473 M262.093 216.762 C 227.198 244.034,176.525 244.710,140.387 218.386 C 136.955 215.886,135.318 215.738,133.793 217.790 C 131.880 220.364,134.532 223.092,145.022 229.341 C 183.160 252.059,232.020 248.814,267.284 221.222 C 271.055 218.272,271.753 216.829,270.332 214.918 C 268.641 212.643,266.850 213.044,262.093 216.762 M201.860 355.780 C 201.860 355.931,202.331 356.349,202.907 356.707 C 203.831 357.282,203.886 357.277,203.376 356.660 C 203.059 356.275,202.902 355.858,203.027 355.732 C 203.153 355.607,202.942 355.504,202.558 355.504 C 202.174 355.504,201.860 355.628,201.860 355.780 M215.814 356.320 C 215.814 356.553,216.267 356.744,216.822 356.744 C 217.376 356.744,217.684 356.599,217.506 356.421 C 217.003 355.918,215.814 355.847,215.814 356.320 " stroke="none" fill="#000000" fill-rule="evenodd"></path></g></svg>